<svg width="117" height="200" viewBox="0 0 117 200" fill="none" xmlns="http://www.w3.org/2000/svg">
<path d="M192.289 15.4229C188.039 15.4229 184.577 11.9607 184.577 7.71148C184.577 3.4623 188.039 0 192.289 0C196.538 0 200 3.4623 200 7.71148C200 11.9869 196.538 15.4229 192.289 15.4229ZM200 53.8492C200 49.6 196.538 46.1377 192.289 46.1377C188.039 46.1377 184.577 49.6 184.577 53.8492C184.577 58.0984 188.039 61.5607 192.289 61.5607C196.538 61.5607 200 58.1246 200 53.8492ZM200 99.9869C200 95.7377 196.538 92.2754 192.289 92.2754C188.039 92.2754 184.577 95.7377 184.577 99.9869C184.577 104.236 188.039 107.698 192.289 107.698C196.538 107.725 200 104.262 200 99.9869ZM200 146.151C200 141.902 196.538 138.439 192.289 138.439C188.039 138.439 184.577 141.902 184.577 146.151C184.577 150.4 188.039 153.862 192.289 153.862C196.538 153.862 200 150.4 200 146.151ZM200 192.289C200 188.039 196.538 184.577 192.289 184.577C188.039 184.577 184.577 188.039 184.577 192.289C184.577 196.538 188.039 200 192.289 200C196.538 200 200 196.538 200 192.289ZM153.862 7.71148C153.862 3.4623 150.4 0 146.151 0C141.902 0 138.439 3.4623 138.439 7.71148C138.439 11.9607 141.902 15.4229 146.151 15.4229C150.4 15.4229 153.862 11.9869 153.862 7.71148ZM153.862 53.8492C153.862 49.6 150.4 46.1377 146.151 46.1377C141.902 46.1377 138.439 49.6 138.439 53.8492C138.439 58.0984 141.902 61.5607 146.151 61.5607C150.4 61.5607 153.862 58.1246 153.862 53.8492ZM153.862 99.9869C153.862 95.7377 150.4 92.2754 146.151 92.2754C141.902 92.2754 138.439 95.7377 138.439 99.9869C138.439 104.236 141.902 107.698 146.151 107.698C150.4 107.725 153.862 104.262 153.862 99.9869ZM153.862 146.151C153.862 141.902 150.4 138.439 146.151 138.439C141.902 138.439 138.439 141.902 138.439 146.151C138.439 150.4 141.902 153.862 146.151 153.862C150.4 153.862 153.862 150.4 153.862 146.151ZM153.862 192.289C153.862 188.039 150.4 184.577 146.151 184.577C141.902 184.577 138.439 188.039 138.439 192.289C138.439 196.538 141.902 200 146.151 200C150.4 200 153.862 196.538 153.862 192.289ZM107.698 7.71148C107.698 3.4623 104.236 0 99.9869 0C95.7377 0 92.2754 3.4623 92.2754 7.71148C92.2754 11.9607 95.7377 15.4229 99.9869 15.4229C104.262 15.4229 107.698 11.9869 107.698 7.71148ZM107.698 53.8492C107.698 49.6 104.236 46.1377 99.9869 46.1377C95.7377 46.1377 92.2754 49.6 92.2754 53.8492C92.2754 58.0984 95.7377 61.5607 99.9869 61.5607C104.262 61.5607 107.698 58.1246 107.698 53.8492ZM107.698 99.9869C107.698 95.7377 104.236 92.2754 99.9869 92.2754C95.7377 92.2754 92.2754 95.7377 92.2754 99.9869C92.2754 104.236 95.7377 107.698 99.9869 107.698C104.262 107.725 107.698 104.262 107.698 99.9869ZM107.698 146.151C107.698 141.902 104.236 138.439 99.9869 138.439C95.7377 138.439 92.2754 141.902 92.2754 146.151C92.2754 150.4 95.7377 153.862 99.9869 153.862C104.262 153.862 107.698 150.4 107.698 146.151ZM107.698 192.289C107.698 188.039 104.236 184.577 99.9869 184.577C95.7377 184.577 92.2754 188.039 92.2754 192.289C92.2754 196.538 95.7377 200 99.9869 200C104.262 200 107.698 196.538 107.698 192.289ZM61.5606 7.71148C61.5606 3.4623 58.0983 0 53.8491 0C49.5999 0 46.1378 3.4623 46.1378 7.71148C46.1378 11.9607 49.5999 15.4229 53.8491 15.4229C58.1245 15.4229 61.5606 11.9869 61.5606 7.71148ZM61.5606 53.8492C61.5606 49.6 58.0983 46.1377 53.8491 46.1377C49.5999 46.1377 46.1378 49.6 46.1378 53.8492C46.1378 58.0984 49.5999 61.5607 53.8491 61.5607C58.1245 61.5607 61.5606 58.1246 61.5606 53.8492ZM61.5606 99.9869C61.5606 95.7377 58.0983 92.2754 53.8491 92.2754C49.5999 92.2754 46.1378 95.7377 46.1378 99.9869C46.1378 104.236 49.5999 107.698 53.8491 107.698C58.1245 107.725 61.5606 104.262 61.5606 99.9869ZM61.5606 146.151C61.5606 141.902 58.0983 138.439 53.8491 138.439C49.5999 138.439 46.1378 141.902 46.1378 146.151C46.1378 150.4 49.5999 153.862 53.8491 153.862C58.1245 153.862 61.5606 150.4 61.5606 146.151ZM61.5606 192.289C61.5606 188.039 58.0983 184.577 53.8491 184.577C49.5999 184.577 46.1378 188.039 46.1378 192.289C46.1378 196.538 49.5999 200 53.8491 200C58.1245 200 61.5606 196.538 61.5606 192.289ZM15.423 7.71148C15.423 3.4623 11.9607 0 7.71148 0C3.4623 0 0 3.4623 0 7.71148C0 11.9607 3.4623 15.4229 7.71148 15.4229C11.9607 15.4229 15.423 11.9869 15.423 7.71148ZM15.423 53.8492C15.423 49.6 11.9607 46.1377 7.71148 46.1377C3.4623 46.1377 0 49.6 0 53.8492C0 58.0984 3.4623 61.5607 7.71148 61.5607C11.9607 61.5607 15.423 58.1246 15.423 53.8492ZM15.423 99.9869C15.423 95.7377 11.9607 92.2754 7.71148 92.2754C3.4623 92.2754 0 95.7377 0 99.9869C0 104.236 3.4623 107.698 7.71148 107.698C11.9607 107.698 15.423 104.262 15.423 99.9869ZM15.423 146.151C15.423 141.902 11.9607 138.439 7.71148 138.439C3.4623 138.439 0 141.902 0 146.151C0 150.4 3.4623 153.862 7.71148 153.862C11.9607 153.862 15.423 150.4 15.423 146.151ZM15.423 192.289C15.423 188.039 11.9607 184.577 7.71148 184.577C3.4623 184.577 0 188.039 0 192.289C0 196.538 3.4623 200 7.71148 200C11.9607 200 15.423 196.538 15.423 192.289Z" fill="white" fill-opacity="0.3"/>
</svg>
